<?xml version="1.0" encoding="UTF-8"?>
<svg id="Layer_1" data-name="Layer 1" xmlns="http://www.w3.org/2000/svg" viewBox="0 0 1394.95 1042.31">
  <defs>
    <style>
      .cls-1 {
        fill: #6d6e71;
      }
    </style>
  </defs>
  <path class="cls-1" d="M342.48,493l31.28,31.18-31.28,31.18-31.28-31.18,31.28-31.18M342.48,491.68l-32.6,32.5,32.6,32.5,32.6-32.5-32.6-32.5h0Z"/>
  <path class="cls-1" d="M243.95,396.23l31.28,31.18-31.28,31.18-31.28-31.18,31.28-31.18M243.95,394.91l-32.6,32.5,32.6,32.5,32.6-32.5-32.6-32.5h0Z"/>
  <polygon points="179.47 459.18 212.07 426.69 244.68 459.18 212.07 491.68 179.47 459.18"/>
  <path class="cls-1" d="M342.45,429.97l31.28,31.18-31.28,31.18-31.28-31.18,31.28-31.18M342.45,428.66l-32.6,32.5,32.6,32.5,32.6-32.5-32.6-32.5h0Z"/>
  <path class="cls-1" d="M406.2,556.81l-33.13-33.03,33.13-33.03,33.13,33.03-33.13,33.03ZM374.12,523.79l32.07,31.97,32.07-31.97-32.07-31.97-32.07,31.97Z"/>
  <path class="cls-1" d="M212.07,493l31.28,31.18-31.28,31.18-31.28-31.18,31.28-31.18M212.07,491.68l-32.6,32.5,32.6,32.5,32.6-32.5-32.6-32.5h0Z"/>
  <polygon points="212.07 556.68 244.68 524.18 277.28 556.68 244.68 589.18 212.07 556.68"/>
  <polygon points="277.28 556.68 309.88 524.18 342.48 556.68 309.88 589.17 277.28 556.68"/>
  <polygon points="342.49 491.68 375.09 459.18 407.69 491.68 375.09 524.18 342.49 491.68"/>
  <polygon points="375.09 459.18 407.69 426.69 440.29 459.18 407.69 491.68 375.09 459.18"/>
  <g>
    <path d="M562.64,549.09c-11.22,0-20.96-2.37-29.21-7.09s-14.6-11.47-19.06-20.21c-4.46-8.75-6.68-19.11-6.68-31.1s2.23-22.52,6.68-31.27c4.46-8.74,10.81-15.51,19.06-20.29s17.99-7.18,29.21-7.18,21.12,2.39,29.37,7.18,14.6,11.55,19.06,20.29c4.46,8.75,6.68,19.17,6.68,31.27s-2.23,22.36-6.68,31.1-10.81,15.48-19.06,20.21-18.04,7.09-29.37,7.09ZM562.64,530.61c6.82,0,12.62-1.59,17.41-4.79,4.79-3.19,8.47-7.78,11.05-13.78,2.58-5.99,3.88-13.12,3.88-21.37s-1.29-15.54-3.88-21.53c-2.59-5.99-6.27-10.61-11.05-13.86-4.79-3.24-10.59-4.87-17.41-4.87s-12.49,1.62-17.32,4.87c-4.84,3.25-8.53,7.87-11.05,13.86-2.53,6-3.79,13.17-3.79,21.53s1.26,15.37,3.79,21.37c2.53,6,6.21,10.59,11.05,13.78,4.84,3.19,10.61,4.79,17.32,4.79Z"/>
    <path d="M724.17,469.07h-23.27c-1.76-6.05-4.87-10.67-9.32-13.86-4.46-3.19-9.82-4.78-16.09-4.78s-11.47,1.62-15.92,4.87c-4.46,3.25-7.87,7.87-10.23,13.86-2.37,6-3.55,13.17-3.55,21.53s1.15,15.51,3.46,21.45c2.31,5.94,5.69,10.51,10.15,13.69,4.46,3.19,9.82,4.79,16.09,4.79,5.94,0,11.14-1.51,15.59-4.54,4.46-3.02,7.62-7.45,9.49-13.28h23.43c-1.98,7.81-5.31,14.41-9.98,19.8-4.68,5.39-10.29,9.49-16.83,12.29-6.55,2.8-13.67,4.21-21.37,4.21-10.89,0-20.29-2.37-28.21-7.09s-14-11.44-18.23-20.13c-4.24-8.69-6.35-19.08-6.35-31.19s2.15-22.52,6.44-31.27c4.29-8.74,10.39-15.51,18.31-20.29s17.38-7.18,28.38-7.18c7.81,0,15.02,1.4,21.62,4.21,6.6,2.8,12.24,6.96,16.91,12.46,4.67,5.5,7.84,12.32,9.49,20.46Z"/>
    <path d="M731.6,546.62v-112.2h22.28v112.2h-22.28Z"/>
    <path d="M817.89,549.09c-11.22,0-20.96-2.37-29.21-7.09s-14.6-11.47-19.06-20.21-6.68-19.11-6.68-31.1,2.23-22.52,6.68-31.27c4.46-8.74,10.81-15.51,19.06-20.29s17.99-7.18,29.21-7.18,21.12,2.39,29.37,7.18,14.6,11.55,19.06,20.29c4.46,8.75,6.68,19.17,6.68,31.27s-2.23,22.36-6.68,31.1-10.81,15.48-19.06,20.21-18.04,7.09-29.37,7.09ZM817.89,530.61c6.82,0,12.62-1.59,17.41-4.79,4.79-3.19,8.47-7.78,11.06-13.78,2.58-5.99,3.88-13.12,3.88-21.37s-1.29-15.54-3.88-21.53c-2.59-5.99-6.27-10.61-11.06-13.86-4.79-3.24-10.59-4.87-17.41-4.87s-12.49,1.62-17.33,4.87c-4.84,3.25-8.53,7.87-11.05,13.86-2.53,6-3.79,13.17-3.79,21.53s1.26,15.37,3.79,21.37c2.53,6,6.21,10.59,11.05,13.78,4.84,3.19,10.61,4.79,17.33,4.79Z"/>
    <path d="M882.08,546.62v-112.2h22.28v112.2h-22.28ZM898.25,546.62v-17.98h58.08v17.98h-58.08Z"/>
    <path d="M962.59,546.62v-112.2h22.28v112.2h-22.28Z"/>
    <path d="M997.74,546.62v-112.2h20.96l1.32,112.2h-22.28ZM1068.52,546.62l-41.58-66.49-23.1-45.71h17.33l41.58,66.66,23.1,45.54h-17.33ZM1070.83,546.62l-1.16-112.2h22.11v112.2h-20.96Z"/>
    <path d="M1104.82,546.62v-112.2h22.28v112.2h-22.28ZM1124.13,491.18l48.01-56.76h26.07l-49,56.76h-25.08ZM1124.13,491.18l24.25-4.46,51.97,59.89h-28.21l-48.01-55.44Z"/>
  </g>
</svg>