<?xml version="1.0" encoding="UTF-8"?>
<svg id="Layer_1" data-name="Layer 1" xmlns="http://www.w3.org/2000/svg" viewBox="0 0 1394.95 1042.31">
  <defs>
    <style>
      .cls-1 {
        fill: #6d6e71;
      }

      .cls-2 {
        fill: #fff;
      }
    </style>
  </defs>
  <path class="cls-1" d="M871.84,526.27l167.3,167.3-167.3,167.3-167.3-167.3,167.3-167.3M871.84,519.2l-174.37,174.37,174.37,174.37,174.37-174.37-174.37-174.37h0Z"/>
  <path class="cls-1" d="M344.83,7.07l167.3,167.3-167.3,167.3-167.3-167.3L344.83,7.07M344.83,0l-174.37,174.37,174.37,174.37,174.37-174.37L344.83,0h0Z"/>
  <rect class="cls-2" x="51.07" y="221.54" width="246.59" height="246.59" transform="translate(-192.76 224.3) rotate(-45)"/>
  <path class="cls-1" d="M871.65,188.11l167.3,167.3-167.3,167.3-167.3-167.3,167.3-167.3M871.65,181.04l-174.37,174.37,174.37,174.37,174.37-174.37-174.37-174.37h0Z"/>
  <path class="cls-1" d="M1212.59,868.66l-177.2-177.2,177.2-177.2,177.2,177.2-177.2,177.2ZM1041.05,691.47l171.54,171.54,171.54-171.54-171.54-171.54-171.54,171.54Z"/>
  <path class="cls-1" d="M174.37,526.27l167.3,167.3-167.3,167.3L7.07,693.57l167.3-167.3M174.37,519.2L0,693.57l174.37,174.37,174.37-174.37-174.37-174.37h0Z"/>
  <rect class="cls-2" x="225.44" y="744.64" width="246.59" height="246.59" transform="translate(-511.58 500.81) rotate(-45)"/>
  <rect class="cls-2" x="574.18" y="744.64" width="246.59" height="246.59" transform="translate(-409.44 747.4) rotate(-45)"/>
  <rect class="cls-2" x="922.91" y="395.91" width="246.59" height="246.59" transform="translate(-60.7 891.85) rotate(-45)"/>
  <rect class="cls-2" x="1097.28" y="221.54" width="246.59" height="246.59" transform="translate(113.67 964.08) rotate(-45)"/>
</svg>