<?xml version="1.0" encoding="UTF-8"?>
<svg id="Layer_1" data-name="Layer 1" xmlns="http://www.w3.org/2000/svg" viewBox="0 0 2180 2180">
  <rect x="1207.86" y="1155.08" width="246.59" height="246.59" transform="translate(-514.07 1315.7) rotate(-45)"/>
  <rect x="680.85" y="635.88" width="246.59" height="246.59" transform="translate(-301.29 790.98) rotate(-45)"/>
  <rect x="510.39" y="806.35" width="246.59" height="246.59" transform="translate(-471.76 720.37) rotate(-45)"/>
  <rect x="1207.67" y="816.92" width="246.59" height="246.59" transform="translate(-275 1216.52) rotate(-45)"/>
  <rect x="1548.6" y="1152.98" width="246.59" height="246.59" transform="translate(-412.78 1556.03) rotate(-45)"/>
  <rect x="510.39" y="1155.08" width="246.59" height="246.59" transform="translate(-718.35 822.51) rotate(-45)"/>
  <rect x="684.75" y="1329.45" width="246.59" height="246.59" transform="translate(-790.58 996.88) rotate(-45)"/>
  <rect x="1033.49" y="1329.45" width="246.59" height="246.59" transform="translate(-688.43 1243.47) rotate(-45)"/>
  <rect x="1382.23" y="980.72" width="246.59" height="246.59" transform="translate(-339.7 1387.93) rotate(-45)"/>
  <rect x="1556.6" y="806.35" width="246.59" height="246.59" transform="translate(-165.33 1460.15) rotate(-45)"/>
</svg>