<?xml version="1.0" encoding="UTF-8"?>
<svg xmlns="http://www.w3.org/2000/svg" viewBox="0 0 4077.08 2181">
  <defs>
    <style>
      .cls-1 {
        fill: #6d6e71;
      }

      .cls-2 {
        fill: #8dc63f;
      }

      .cls-3 {
        fill: #f9ed32;
      }

      .cls-4 {
        fill: #a683db;
      }

      .cls-5 {
        stroke: #321500;
        stroke-miterlimit: 10;
      }
    </style>
  </defs>
  <g id="Layer_2" data-name="Layer 2">
    <rect class="cls-5" x=".5" y=".5" width="2180" height="2180"/>
  </g>
  <g id="Layer_1" data-name="Layer 1">
    <path class="cls-1" d="M3553.98,1111.58l167.3,167.3-167.3,167.3-167.3-167.3,167.3-167.3M3553.98,1104.51l-174.37,174.37,174.37,174.37,174.37-174.37-174.37-174.37h0Z"/>
    <path class="cls-1" d="M3026.97,592.38l167.3,167.3-167.3,167.3-167.3-167.3,167.3-167.3M3026.97,585.31l-174.37,174.37,174.37,174.37,174.37-174.37-174.37-174.37h0Z"/>
    <rect class="cls-4" x="2733.21" y="806.85" width="246.59" height="246.59" transform="translate(178.94 2292.29) rotate(-45)"/>
    <path class="cls-1" d="M3553.79,773.42l167.3,167.3-167.3,167.3-167.3-167.3,167.3-167.3M3553.79,766.35l-174.37,174.37,174.37,174.37,174.37-174.37-174.37-174.37h0Z"/>
    <path class="cls-1" d="M3894.72,1453.97l-177.2-177.2,177.2-177.2,177.2,177.2-177.2,177.2ZM3723.18,1276.78l171.54,171.54,171.54-171.54-171.54-171.54-171.54,171.54Z"/>
    <path class="cls-1" d="M2856.5,1111.58l167.3,167.3-167.3,167.3-167.3-167.3,167.3-167.3M2856.5,1104.51l-174.37,174.37,174.37,174.37,174.37-174.37-174.37-174.37h0Z"/>
    <rect class="cls-4" x="2907.57" y="1329.95" width="246.59" height="246.59" transform="translate(-139.88 2568.8) rotate(-45)"/>
    <rect class="cls-4" x="3256.31" y="1329.95" width="246.59" height="246.59" transform="translate(-37.74 2815.39) rotate(-45)"/>
    <rect class="cls-3" x="3605.05" y="981.22" width="246.59" height="246.59" transform="translate(311 2959.84) rotate(-45)"/>
    <rect class="cls-2" x="3779.42" y="806.85" width="246.59" height="246.59" transform="translate(485.37 3032.07) rotate(-45)"/>
  </g>
</svg>